<?xml version="1.0" encoding="UTF-8" standalone="no"?><!DOCTYPE svg PUBLIC "-//W3C//DTD SVG 1.1//EN" "http://www.w3.org/Graphics/SVG/1.1/DTD/svg11.dtd"><svg width="100%" height="100%" viewBox="0 0 480 360" version="1.1" xmlns="http://www.w3.org/2000/svg" xmlns:xlink="http://www.w3.org/1999/xlink" xml:space="preserve" xmlns:serif="http://www.serif.com/" style="fill-rule:evenodd;clip-rule:evenodd;stroke-linecap:round;stroke-linejoin:round;stroke-miterlimit:1.5;"><path id="up" d="M114.817,144.199c6.712,-0 12.154,5.441 12.154,12.154c0,0.268 0,0.536 0,0.803c0,6.713 -5.442,12.155 -12.154,12.155c-0.001,-0 -0.001,-0 -0.002,-0c-6.713,-0 -12.154,-5.442 -12.154,-12.155c-0,-0.267 -0,-0.535 -0,-0.803c-0,-6.713 5.441,-12.154 12.154,-12.154c0.001,-0 0.001,-0 0.002,-0Z" style="fill:#fff;stroke:#000;stroke-width:3.69px;"/><path id="down" d="M114.815,223.83c-6.713,0 -12.154,-5.441 -12.154,-12.154c-0,-0.268 -0,-0.536 -0,-0.804c-0,-6.712 5.441,-12.154 12.154,-12.154c0.001,-0 0.001,-0 0.002,-0c6.712,-0 12.154,5.442 12.154,12.154c0,0.268 0,0.536 0,0.804c0,6.713 -5.442,12.154 -12.154,12.154c-0.001,0 -0.001,0 -0.002,0Z" style="fill:#fff;stroke:#000;stroke-width:3.69px;"/><path id="right" d="M154.632,184.015c-0,6.713 -5.442,12.155 -12.155,12.155c-0.267,-0 -0.535,-0 -0.803,-0c-6.713,-0 -12.155,-5.442 -12.155,-12.155c0,-0 0,-0.001 0,-0.001c0,-6.713 5.442,-12.155 12.155,-12.155c0.268,0 0.536,0 0.803,0c6.713,0 12.155,5.442 12.155,12.155c-0,0 -0,0.001 -0,0.001Z" style="fill:#fff;stroke:#000;stroke-width:3.69px;"/><path id="left" d="M75,184.014c0,-6.713 5.442,-12.155 12.155,-12.155c0.267,0 0.535,0 0.803,0c6.713,0 12.154,5.442 12.154,12.155c0,0 0,0.001 0,0.001c0,6.713 -5.441,12.155 -12.154,12.155c-0.268,-0 -0.536,-0 -0.803,-0c-6.713,-0 -12.155,-5.442 -12.155,-12.155c-0,-0 -0,-0.001 -0,-0.001Z" style="fill:#fff;stroke:#000;stroke-width:3.69px;"/><circle id="n" cx="364.907" cy="156.584" r="12.663" style="fill:#fff;stroke:#000;stroke-width:3.69px;"/><circle id="s" cx="364.907" cy="211.444" r="12.663" style="fill:#fff;stroke:#000;stroke-width:3.69px;"/><path id="e" d="M405,184.014c-0,6.99 -5.674,12.664 -12.663,12.664c-6.99,-0 -12.664,-5.674 -12.664,-12.664c0,-6.989 5.674,-12.663 12.664,-12.663c6.989,0 12.663,5.674 12.663,12.663Z" style="fill:#fff;stroke:#000;stroke-width:3.69px;"/><path id="w" d="M350.14,184.014c-0,6.99 -5.674,12.664 -12.663,12.664c-6.99,-0 -12.664,-5.674 -12.664,-12.664c0,-6.989 5.674,-12.663 12.664,-12.663c6.989,0 12.663,5.674 12.663,12.663Z" style="fill:#fff;stroke:#000;stroke-width:3.69px;"/><path id="back" d="M216.334,184.014c0,4.119 -3.344,7.463 -7.463,7.463c-4.119,0 -7.463,-3.344 -7.463,-7.463c0,-4.119 3.344,-7.463 7.463,-7.463c4.119,0 7.463,3.344 7.463,7.463Z" style="fill:#fff;stroke:#000;stroke-width:3.69px;"/><path id="start" d="M278.037,184.014c-0,4.119 -3.344,7.463 -7.463,7.463c-4.119,0 -7.463,-3.344 -7.463,-7.463c-0,-4.119 3.344,-7.463 7.463,-7.463c4.119,0 7.463,3.344 7.463,7.463Z" style="fill:#fff;stroke:#000;stroke-width:3.69px;"/><path id="l1" d="M121.875,114.984l-0,9.715c-0,2.68 -2.177,4.857 -4.857,4.857l-37.161,-0c-2.681,-0 -4.857,-2.177 -4.857,-4.857l0,-9.715c0,-2.68 2.176,-4.857 4.857,-4.857l37.161,0c2.68,0 4.857,2.177 4.857,4.857Z" style="fill:#fff;stroke:#000;stroke-width:3.69px;"/><path id="r1" d="M358.125,114.984l0,9.715c0,2.68 2.177,4.857 4.857,4.857l37.161,-0c2.681,-0 4.857,-2.177 4.857,-4.857l-0,-9.715c-0,-2.68 -2.176,-4.857 -4.857,-4.857l-37.161,0c-2.68,0 -4.857,2.177 -4.857,4.857Z" style="fill:#fff;stroke:#000;stroke-width:3.69px;"/><path id="l2" d="M117.018,104.143l-9.714,-0c-2.681,-0 -4.858,-2.177 -4.858,-4.858l0,-19.428c0,-2.681 2.177,-4.857 4.858,-4.857l9.714,-0c2.68,-0 4.857,2.176 4.857,4.857l-0,19.428c-0,2.681 -2.177,4.858 -4.857,4.858Z" style="fill:#fff;stroke:#000;stroke-width:3.69px;"/><path id="r2" d="M362.982,104.143l9.714,-0c2.681,-0 4.858,-2.177 4.858,-4.858l-0,-19.428c-0,-2.681 -2.177,-4.857 -4.858,-4.857l-9.714,0c-2.68,0 -4.857,2.176 -4.857,4.857l0,19.428c0,2.681 2.177,4.858 4.857,4.858Z" style="fill:#fff;stroke:#000;stroke-width:3.69px;"/><circle id="lbounds" cx="162.722" cy="256.052" r="28.948" style="fill:none;stroke:#000;stroke-width:2.28px;stroke-dasharray:2.28,4.56,0,0,0,0;"/><circle id="rbounds" cx="317.278" cy="256.052" r="28.948" style="fill:none;stroke:#000;stroke-width:2.28px;stroke-dasharray:2.28,4.56,0,0,0,0;"/><circle id="lstick" cx="162.722" cy="256.052" r="18.129" style="fill:#fff;stroke:#000;stroke-width:3.69px;"/><circle id="rstick" cx="317.278" cy="256.052" r="18.129" style="fill:#fff;stroke:#000;stroke-width:3.69px;"/><path id="touchpad" d="M317.278,83.435l-0,55.88c-0,4.656 -3.78,8.435 -8.435,8.435l-137.686,0c-4.655,0 -8.435,-3.779 -8.435,-8.435l0,-55.88c0,-4.656 3.78,-8.435 8.435,-8.435l137.686,0c4.655,0 8.435,3.779 8.435,8.435Z" style="fill:#fff;stroke:#000;stroke-width:3.69px;"/></svg>